<?xml version='1.0' encoding='utf-8'?>
<svg xmlns="http://www.w3.org/2000/svg" version="1.1" viewBox="0 0 100 100"> <g stroke="#000" stroke-linecap="butt" stroke-linejoin="miter" stroke-miterlimit="1" stroke-opacity="0" stroke-width="2.975px"> <path transform="matrix(.054647 0 0 .054647 27.482 23.372)" d="m-6.3327 140.47-8.5e-6 39.167 155.39-0.00204v-39.164l-155.39-5.3e-4zm375.7 417.84 104.6 6e-4 -1.6e-4 104.6-104.6 4.4e-4 6e-5 -104.6zm-134.12 0 104.59 5e-4q-5e-5 52.298-5e-5 104.6-52.298 1e-4 -104.6 7.3e-4 0-52.299-3e-5 -104.6zm134.12 132.41 104.6 4.7e-4 4e-5 104.6-104.6 6.1e-4 -1.3e-4 -104.6zm-81.82 1e-4 52.298 3e-4q0 52.298 5e-5 104.6-52.298 3e-4 -104.6 8.6e-4 -7e-5 -52.299-4e-5 -104.6h0.00153l52.296-6e-5zm57.878-656.34-218.22 218.22 0.003406 186.81-10.634 1.5e-4q0 42.834 0 85.669 0-42.834-0.00325-85.669h0.00325q0-127.98 0-255.95l-79.756-0.00129q-2.3e-5 79.768-3.8e-5 159.54h-0.002488l-146.62 146.61 98.063 0.00178-3.75e-5 358.99h1.175e-4q67.183 32.029 147.46 44.875h0.00136q33.593 3.5754 65.7 3.5754h4.1e-4q170.02 0 300.64-101.14h4.9e-4q153.92-120.18 186.35-320.89h0.0069l4.6058-68.466h0.00697q-0.3677-13.044-1.2525-25.811h0.0069l-346.36-346.36z"/> <path transform="matrix(.054647 0 0 .054647 27.482 23.372)" d="m402-88.452q99.567 39.185 178.32 117.94 150.79 150.79 156.52 377.87l-4.8781 72.514q-34.682 219.14-202.96 350.53-142.51 110.41-327.58 110.41-34.98 0-71.482-3.9444-121.55-19.237-216.1-79.575h-4e-3q139.37 165.85 364.3 201.45 39.442 4.2622 77.241 4.2622 199.99 3e-4 353.98-119.31 181.84-141.98 219.32-378.78l5.2715-78.357q-0.22924-79.959-20.627-153.51l-24.752-71.261q-29.45-69.315-74.941-128.09-141.98-181.84-378.78-219.32-16.566-1.7902-32.842-2.8284z"/> </g> </svg>