<?xml version='1.0' encoding='utf-8'?>
<svg xmlns="http://www.w3.org/2000/svg" width="1e3" height="1e3" version="1.1" viewBox="0 0 264.58 264.58"> <rect width="264.58" height="264.58" fill="#f7f7f7" style="paint-order:stroke markers fill"/> <g transform="matrix(1.1 0 0 1.1 -30.747 182.77)" fill="#fc0"> <path d="m194.51-60.658a20.204 20.204 0 0 1-20.204 20.204 20.204 20.204 0 0 1-20.204-20.204 20.204 20.204 0 0 1 20.204-20.204 20.204 20.204 0 0 1 20.204 20.204z" color="#000000" stroke-linecap="square" stroke-width="3.608" style="-inkscape-stroke:none;paint-order:fill markers stroke"/> <path d="m174.31-100.35c-1.4658 0-2.6458 1.416-2.6458 3.175v6.8792c0 1.759 1.18 3.175 2.6458 3.175s2.6458-1.416 2.6458-3.175v-6.8792c0-1.759-1.18-3.175-2.6458-3.175z" color="#000000" stroke-linecap="round" stroke-width="4.8106" style="-inkscape-stroke:none;paint-order:fill markers stroke"/> <path d="m202.37-88.721c-1.0365-1.0365-2.8722-0.86959-4.116 0.37418l-4.8643 4.8643c-1.2438 1.2438-1.4106 3.0795-0.37418 4.1159s2.8722 0.86958 4.116-0.37418l4.8643-4.8643c1.2438-1.2438 1.4106-3.0795 0.37418-4.1159z" color="#000000" stroke-linecap="round" stroke-width="4.8106" style="-inkscape-stroke:none;paint-order:fill markers stroke"/> <path d="m214-60.658c0-1.4658-1.416-2.6458-3.175-2.6458l-6.8792-1e-6c-1.759 1e-6 -3.175 1.18-3.175 2.6458s1.416 2.6458 3.175 2.6458h6.8792c1.759 0 3.175-1.18 3.175-2.6458z" color="#000000" stroke-linecap="round" stroke-width="4.8106" style="-inkscape-stroke:none;paint-order:fill markers stroke"/> <path d="m202.37-32.594c1.0365-1.0365 0.86959-2.8722-0.37418-4.1159l-4.8643-4.8643c-1.2438-1.2438-3.0795-1.4106-4.116-0.37418s-0.86959 2.8722 0.37418 4.1159l4.8643 4.8643c1.2438 1.2438 3.0795 1.4106 4.116 0.37418z" color="#000000" stroke-linecap="round" stroke-width="4.8106" style="-inkscape-stroke:none;paint-order:fill markers stroke"/> <path d="m174.31-20.97c1.4658 0 2.6458-1.416 2.6458-3.175v-6.8792c0-1.759-1.18-3.175-2.6458-3.175s-2.6458 1.416-2.6458 3.175v6.8792c0 1.7589 1.18 3.175 2.6458 3.175z" color="#000000" stroke-linecap="round" stroke-width="4.8106" style="-inkscape-stroke:none;paint-order:fill markers stroke"/> <path d="m146.25-32.594c1.0365 1.0365 2.8722 0.86959 4.116-0.37418l4.8643-4.8643c1.2438-1.2438 1.4106-3.0795 0.37418-4.1159s-2.8722-0.86959-4.116 0.37418l-4.8643 4.8643c-1.2438 1.2438-1.4106 3.0795-0.37418 4.1159z" color="#000000" stroke-linecap="round" stroke-width="4.8106" style="-inkscape-stroke:none;paint-order:fill markers stroke"/> <path d="m134.62-60.658c0 1.4658 1.416 2.6458 3.175 2.6458l6.8792-3e-6c1.759 3e-6 3.175-1.18 3.175-2.6458s-1.416-2.6458-3.175-2.6458l-6.8792 4e-6c-1.759-4e-6 -3.175 1.18-3.175 2.6458z" color="#000000" stroke-linecap="round" stroke-width="4.8106" style="-inkscape-stroke:none;paint-order:fill markers stroke"/> <path d="m146.25-88.721c-1.0365 1.0365-0.86959 2.8722 0.37418 4.1159l4.8643 4.8643c1.2438 1.2438 3.0795 1.4106 4.116 0.37418s0.86958-2.8722-0.37418-4.1159l-4.8643-4.8643c-1.2438-1.2438-3.0795-1.4106-4.116-0.37418z" color="#000000" stroke-linecap="round" stroke-width="4.8106" style="-inkscape-stroke:none;paint-order:fill markers stroke"/> </g> <path d="m105.76 107.47a25.311 25.311 0 0 0-25.311 25.311 25.311 25.311 0 0 0 0.17254 2.8017c-9.546 1.7141-16.708 9.4242-16.708 18.733 0 10.576 9.2438 19.09 20.726 19.09h73.955c10.576 0 19.09-7.9142 19.09-17.744 0-9.7688-8.4091-17.641-18.893-17.739a21.919 21.919 0 0 0-21.744-19.163 21.919 21.919 0 0 0-9.0346 1.9633 25.311 25.311 0 0 0-22.253-13.252z" color="#000000" fill="#c6e0f7" stroke-linecap="square" stroke-width="3.9688" style="-inkscape-stroke:none;paint-order:fill markers stroke"/> <g transform="translate(-.075742 -.13231)" fill="#3981bf" stroke-linecap="round"> <path d="m98.842 124.75c-6.5903 2e-5 -11.992 5.3448-11.992 11.906a1.9844 1.9844 0 0 0 1.9844 1.9844 1.9844 1.9844 0 0 0 1.9844-1.9844c1e-6 -4.398 3.5595-7.9375 8.0234-7.9375s8.0234 3.5395 8.0234 7.9375-3.5596 7.9375-8.0234 7.9375h-52.332a1.9844 1.9844 0 0 0-1.9844 1.9844 1.9844 1.9844 0 0 0 1.9844 1.9844h52.332c6.5903 0 11.992-5.3448 11.992-11.906 0-6.5614-5.4018-11.906-11.992-11.906z" color="#000000" style="-inkscape-stroke:none;paint-order:fill markers stroke"/> <path d="m123.2 136.39c-5.6172 2e-5 -10.303 4.4143-10.303 9.9219a1.9844 1.9844 0 0 0 1.9844 1.9844 1.9844 1.9844 0 0 0 1.9844-1.9844c0-3.2599 2.7635-5.9531 6.334-5.9531 3.5704-1e-5 6.334 2.6932 6.334 5.9531s-2.7636 5.9531-6.334 5.9531h-66.104a1.9844 1.9844 0 0 0-1.9844 1.9844 1.9844 1.9844 0 0 0 1.9844 1.9844h66.104c5.6172 1e-5 10.303-4.4143 10.303-9.9219s-4.6855-9.9219-10.303-9.9219z" color="#000000" style="-inkscape-stroke:none;paint-order:fill markers stroke"/> <path d="m52.33 159.94a1.9844 1.9844 0 0 0-1.9844 1.9844 1.9844 1.9844 0 0 0 1.9844 1.9844h55.082c4.182-1e-5 7.4922 3.2695 7.4922 7.3105s-3.3102 7.3125-7.4922 7.3125-7.4922-3.2714-7.4922-7.3125a1.9844 1.9844 0 0 0-1.9844-1.9844 1.9844 1.9844 0 0 0-1.9844 1.9844c0 6.2276 5.1749 11.281 11.461 11.281 6.286 0 11.461-5.0536 11.461-11.281s-5.1749-11.279-11.461-11.279z" color="#000000" style="-inkscape-stroke:none;paint-order:fill markers stroke"/> </g> </svg>